<svg width="84" height="16" viewBox="0 0 84 16" fill="none" xmlns="http://www.w3.org/2000/svg">
<rect width="84" height="16" fill="#808080"/>
<g id="Landing Page" clip-path="url(#clip0_130_16483)">
<rect width="1440" height="1024" transform="translate(-64 -64)" fill="#F5F5F4"/>
<path id="IMG_0274 1 (Traced)" fill-rule="evenodd" clip-rule="evenodd" d="M80.9649 3.58804C80.3045 3.81001 80.1259 3.83456 79.6178 3.77309C78.3777 3.62317 77.4237 3.78939 77.0117 4.22711C76.8946 4.3515 76.6172 4.55348 76.3951 4.67598C75.9582 4.91694 75.6708 5.28178 75.4362 5.89352C75.3452 6.13046 75.1311 6.42706 74.8889 6.65134C74.6289 6.89203 74.3774 7.24957 74.1637 7.68186C73.9838 8.04593 73.7311 8.45615 73.6022 8.59335C73.1806 9.04199 72.9646 9.47217 72.7668 10.2569C72.5441 11.1408 72.5464 11.1806 72.8767 12.1537C73.0114 12.5505 73.2355 13.2309 73.3747 13.6655C73.8261 15.0746 74.0289 15.1663 75.8836 14.7997C77.548 14.4707 78.3274 13.8069 78.3547 12.6951C78.3654 12.2569 78.4209 12.0191 78.6093 11.6026C78.7722 11.2427 78.8789 10.8369 78.9389 10.3498L79.0276 9.6293L79.5593 9.24081C79.9869 8.92834 80.1688 8.85036 80.4884 8.84249C81.2338 8.82403 81.7712 8.52138 82.5559 7.67786C82.7742 7.44313 83.1797 7.08293 83.4569 6.87737C84.0279 6.45394 84.0535 6.37971 83.9566 5.4269C83.7951 3.83855 82.531 3.06161 80.9649 3.58804ZM66.5182 1.84942C65.9243 2.07488 64.1042 3.01614 63.2745 3.52681C62.9386 3.73356 62.6235 4.02791 62.3538 4.38695C62.1283 4.68717 61.624 5.26797 61.233 5.67767C60.3661 6.58632 60.3108 6.6875 60.1282 7.69641C60.0182 8.30441 59.9223 8.59148 59.7341 8.877C59.155 9.7553 60.0264 11.8284 61.3722 12.7739C62.4887 13.5583 68.1631 13.1648 68.6975 12.2658C69.5414 10.8464 69.9462 9.96705 70.5353 8.2747L70.8111 7.48233L70.6446 6.95523C70.553 6.66526 70.3299 6.2238 70.1487 5.97402C69.7429 5.41477 69.7542 5.16878 70.2191 4.43786C70.7915 3.5379 70.6298 2.54317 69.8372 2.08971C69.2594 1.75919 67.1568 1.60689 66.5182 1.84942ZM55.17 2.35041C55.0477 2.38538 54.6358 2.40633 54.2547 2.39699C53.7188 2.38389 53.449 2.42707 53.0627 2.58805C52.6409 2.76371 52.4861 2.78374 52.0665 2.71677C51.7038 2.65894 51.4575 2.67458 51.1536 2.77488C50.9247 2.85039 50.5117 2.90827 50.2359 2.90344C49.1357 2.88441 48.6536 3.10428 48.3013 3.78555C48.1736 4.03258 47.9505 4.41263 47.8057 4.63C47.3632 5.29399 47.6431 6.52343 48.4115 7.29073C48.9136 7.79211 49.2434 8.54725 49.4029 9.56046C49.6578 11.1797 51.0286 12.314 52.2595 11.9241C53.3663 11.5736 54.397 10.8173 54.4604 10.3092C54.4649 10.2736 54.6482 10.0376 54.8678 9.78468C55.2311 9.3665 55.2732 9.27553 55.3336 8.77857C55.4141 8.11622 55.5738 7.86145 56.132 7.50533C56.9657 6.97345 57.859 5.67267 57.9597 4.84381C58.1171 3.54943 56.3865 2.00268 55.17 2.35041ZM39.694 2.95666C38.7009 2.96345 37.7943 3.45493 37.1089 4.3579C36.7102 4.88317 36.458 5.09317 35.9441 5.32748C35.1352 5.69618 33.7769 7.3064 33.6931 7.99601C33.6784 8.11661 33.5577 8.47409 33.4247 8.79024C33.2918 9.10639 33.1738 9.44114 33.1625 9.53406C33.1512 9.62698 32.9711 9.91617 32.7622 10.1768C31.9402 11.2023 32.4318 12.8792 33.7386 13.5078C35.4409 14.3264 37.2993 13.6018 37.779 11.9321C38.0448 11.007 38.4433 10.9237 39.1047 11.6549C39.621 12.2258 39.7528 12.2935 40.6678 12.4584L41.4245 12.5947L42.2351 12.3094C43.6129 11.8246 44.4273 10.8577 44.5933 9.51013C44.6683 8.90104 44.9365 8.09442 45.186 7.72755C45.3609 7.47039 45.3608 7.23017 45.1854 6.73026C45.1244 6.5564 45.0673 6.25768 45.0584 6.06643C45.0244 5.33196 43.6754 4.0808 42.4769 3.67218C42.1543 3.56213 41.7075 3.37247 41.484 3.25053C41.0542 3.0161 40.6522 2.95017 39.694 2.95666ZM12.9477 0.0799736C12.7913 0.144051 12.514 0.353148 12.3315 0.544713C12.149 0.736289 11.7626 1.01362 11.4729 1.16102C11.0448 1.37878 10.8033 1.59709 10.1845 2.32567L9.42302 3.22234L9.45979 3.70501C9.52258 4.52978 9.21426 4.79956 7.90114 5.06846C6.50856 5.35365 6.04802 5.0177 6.1933 3.82271L6.27889 3.11871L5.87038 2.25374C4.43984 -0.775548 2.73446 -0.676312 1.53563 2.50601C1.33003 3.05165 1.0409 3.70211 0.893063 3.95144C0.524784 4.5724 0.511505 4.8293 0.817327 5.41814C0.986712 5.74418 1.07422 6.05043 1.07516 6.3204C1.07662 6.73314 1.05794 6.80977 0.681309 7.93407C0.315914 9.02456 0.0534221 10.4763 0.0160532 11.6126C-0.0541949 13.75 0.0835099 14.36 0.884602 15.4598L1.26559 15.9829L1.77485 15.9987C3.21379 16.0432 4.39579 14.9151 5.04707 12.8757C5.17106 12.4876 5.38918 11.9704 5.53191 11.7264C5.67454 11.4824 5.86211 11.1176 5.94861 10.9156C6.19931 10.3304 6.49526 10.2577 6.94847 10.6702C7.45575 11.1319 7.78396 11.1543 8.1858 10.7547C8.82119 10.1231 9.29565 10.3799 9.88031 11.6721C10.6148 13.2954 14.9327 12.7825 14.563 11.1159C14.4377 10.5515 14.485 10.2043 14.7951 9.41245L15.0484 8.7653L14.916 8.24109C14.6932 7.3592 15.0333 5.12378 15.4901 4.4681C15.8064 4.01399 15.8166 3.97998 15.7802 3.5028C15.7595 3.23075 15.7653 2.81329 15.7932 2.57502C15.9367 1.34757 15.4856 0.61906 14.3347 0.219018C13.642 -0.0216777 13.2837 -0.0576195 12.9477 0.0799736ZM27.7485 3.25731C26.7407 3.58704 25.732 4.10414 25.4203 4.45069C24.9924 4.92657 24.7528 4.88503 24.3533 4.26553C23.5292 2.98748 20.7961 2.60842 19.4931 3.59132C19.18 3.82757 18.7368 4.07572 18.5081 4.14279C18.0474 4.27797 17.8246 4.49149 17.6939 4.92288C17.5469 5.40871 17.1442 6.23592 16.8385 6.67984C16.3987 7.31866 16.2277 7.90242 16.3069 8.4947C16.3426 8.76141 16.331 9.15018 16.2813 9.36035C16.1926 9.73465 16.1998 9.75386 16.6641 10.3861C16.9244 10.7404 17.321 11.3287 17.5455 11.6932C18.0621 12.5321 18.2708 12.6561 19.5266 12.8697C20.0589 12.9602 20.6969 13.1184 20.9443 13.2212C21.232 13.3409 21.7634 13.4538 22.4188 13.5347L23.4434 13.6613L23.8682 13.4104C24.4337 13.0765 24.7023 13.02 25.1418 13.1423C25.4361 13.2243 25.5585 13.2165 25.7571 13.1034C26.1484 12.8804 26.3542 12.8764 26.8323 13.0821C27.8836 13.5344 28.8762 12.9907 29.0101 11.8893C29.0733 11.3693 29.0995 11.3164 29.4541 10.9933C29.8639 10.62 30.1991 9.97973 30.4653 9.06206C30.554 8.75631 30.6997 8.37673 30.7892 8.21853C31.0267 7.79859 31.0475 7.38538 30.8567 6.87563C30.7319 6.54235 30.6956 6.22889 30.7171 5.67168C30.7595 4.57395 30.5996 4.31899 29.3912 3.55769C28.6524 3.09222 28.3963 3.04537 27.7485 3.25731Z" fill="#1C1917"/>
</g>
<defs>
<clipPath id="clip0_130_16483">
<rect width="1440" height="1024" fill="white" transform="translate(-64 -64)"/>
</clipPath>
</defs>
</svg>
