<svg width="56" height="56" viewBox="0 0 56 56" fill="none" xmlns="http://www.w3.org/2000/svg">
<path fill-rule="evenodd" clip-rule="evenodd" d="M28.0004 2.80005C21.0416 2.80005 15.4004 8.44126 15.4004 15.4V25.2H14.0004C10.9076 25.2 8.40039 27.7073 8.40039 30.8001V47.6C8.40039 50.6928 10.9076 53.2 14.0004 53.2H42.0004C45.0932 53.2 47.6004 50.6928 47.6004 47.6V30.8001C47.6004 27.7073 45.0932 25.2 42.0004 25.2H40.6004V15.4C40.6004 8.44126 34.9592 2.80005 28.0004 2.80005ZM36.4004 25.2V15.4C36.4004 10.7609 32.6396 7.00005 28.0004 7.00005C23.3612 7.00005 19.6004 10.7609 19.6004 15.4V25.2H36.4004Z" fill="#292524"/>
</svg>
